<svg width="457" height="441" viewBox="0 0 457 441" fill="none" xmlns="http://www.w3.org/2000/svg">
<path d="M444.281 203.334L352.124 280.036L381.379 398.36C383.097 404.97 382.779 411.945 380.468 418.372C378.156 424.799 373.958 430.378 368.423 434.379C363.075 438.281 356.674 440.478 350.057 440.683C343.44 440.887 336.916 439.09 331.337 435.525L228.58 370.427C228.293 370.267 228.166 370.331 228.038 370.427L132.539 430.926C126.385 434.841 119.196 436.814 111.906 436.586C104.616 436.359 97.5629 433.943 91.6651 429.652C85.5563 425.235 80.9236 419.076 78.3733 411.982C75.8231 404.887 75.474 397.188 77.3719 389.893L104.908 281.58L12.3368 203.334C7.09299 198.965 3.28641 193.117 1.41273 186.554C-0.460947 179.99 -0.314909 173.015 1.83183 166.535C3.86678 160.146 7.7801 154.519 13.0612 150.388C18.3423 146.257 24.746 143.814 31.4367 143.377L151.766 135.561L197.319 21.8853C199.743 15.6457 203.992 10.2826 209.513 6.49726C215.033 2.71188 221.568 0.680404 228.261 0.668457H228.293C234.997 0.669599 241.544 2.69591 247.077 6.48185C252.61 10.2678 256.869 15.6368 259.298 21.8853L304.183 134.909L425.181 143.377C431.872 143.814 438.275 146.257 443.557 150.388C448.838 154.519 452.751 160.146 454.786 166.535C456.933 173.015 457.079 179.99 455.205 186.554C453.331 193.117 449.525 198.965 444.281 203.334Z" fill="black"/>
</svg>
